<svg width="37" height="37" viewBox="0 0 37 37" fill="none" xmlns="http://www.w3.org/2000/svg">
<g clip-path="url(#clip0_2_49)">
<path d="M33.1993 25.0233C32.485 23.9852 32.8837 22.4847 32.7059 20.8279C32.523 18.1249 31.3616 15.5061 29.1087 13.4115L21.4353 6.27664C21.4353 6.27664 19.9235 4.86961 18.5154 6.3825C17.1094 7.89436 18.6223 9.30139 18.6223 9.30139L21.8639 12.3169L24.6739 14.9295C24.6739 14.9295 23.9698 15.6859 20.8598 12.7938L10.3559 3.02372C10.3559 3.02372 8.84197 1.61772 7.43494 3.13061C6.02894 4.64247 7.5408 6.0495 7.5408 6.0495L17.4732 15.2882C17.4517 15.2676 16.7219 15.9994 16.7086 15.9871L6.08136 6.10294C6.08136 6.10294 4.56847 4.69591 3.16144 6.2088C1.75442 7.72169 3.2673 9.12769 3.2673 9.12769L13.8956 19.0139C13.9079 19.0262 13.2234 19.7991 13.2439 19.8186L4.07617 11.2901C4.07617 11.2901 2.56328 9.88311 1.15625 11.396C-0.250779 12.9089 1.26211 14.3159 1.26211 14.3159L11.0096 23.3809C11.099 23.4642 10.4957 24.3141 10.6077 24.4179L3.58386 17.8854C3.58386 17.8854 2.07097 16.4784 0.663944 17.9923C-0.743084 19.5052 0.769805 20.9122 0.769805 20.9122L12.2264 31.5631C14.1391 33.3421 16.1032 34.2425 18.4712 34.5724C18.9532 34.6392 19.5699 34.6392 19.8227 34.6711C20.6213 34.7718 21.3223 35.0554 22.2606 35.631C23.4683 36.371 25.2802 36.6793 26.3214 35.5662L29.8713 31.7686L33.1489 28.2618C34.189 27.1498 34.003 26.1898 33.1993 25.0233Z" fill="#90603E"/>
<path d="M2.01033 35.999C1.80687 35.9994 1.60786 35.9394 1.43856 35.8265C1.26927 35.7137 1.13732 35.5531 1.05946 35.3651C0.981603 35.1771 0.961351 34.9703 1.00128 34.7707C1.0412 34.5712 1.1395 34.3881 1.28369 34.2445L4.93333 30.597C5.02876 30.5015 5.14204 30.4258 5.26672 30.3742C5.3914 30.3226 5.52502 30.296 5.65997 30.296C5.79492 30.296 5.92855 30.3226 6.05323 30.3742C6.1779 30.4258 6.29119 30.5015 6.38661 30.597C6.48203 30.6924 6.55773 30.8057 6.60937 30.9303C6.66101 31.055 6.68759 31.1886 6.68759 31.3236C6.68759 31.4585 6.66101 31.5922 6.60937 31.7169C6.55773 31.8415 6.48203 31.9548 6.38661 32.0502L2.73697 35.6989C2.64161 35.7943 2.52831 35.8699 2.40361 35.9214C2.27891 35.9729 2.14525 35.9993 2.01033 35.999ZM8.94372 36.9466C8.77952 36.9468 8.61766 36.9077 8.47172 36.8324C8.32578 36.7572 8.20001 36.648 8.10497 36.5141C8.00993 36.3802 7.94839 36.2255 7.92552 36.0629C7.90264 35.9003 7.9191 35.7346 7.9735 35.5796L8.97147 32.7296C9.01296 32.5984 9.08036 32.4769 9.16968 32.3723C9.25899 32.2676 9.36841 32.182 9.49144 32.1204C9.61447 32.0589 9.74861 32.0226 9.88591 32.0138C10.0232 32.0051 10.1609 32.024 10.2907 32.0694C10.4206 32.1148 10.54 32.1858 10.6419 32.2783C10.7438 32.3707 10.8261 32.4826 10.884 32.6075C10.9418 32.7323 10.974 32.8675 10.9786 33.005C10.9832 33.1425 10.9602 33.2795 10.9109 33.4079L9.91292 36.258C9.84263 36.459 9.71162 36.6333 9.53799 36.7566C9.36437 36.88 9.15671 36.9464 8.94372 36.9466ZM1.06375 29.0666C0.822008 29.0653 0.588459 28.9788 0.404077 28.8225C0.219694 28.6661 0.0962566 28.4499 0.0554207 28.2116C0.0145848 27.9733 0.0589588 27.7283 0.180758 27.5195C0.302556 27.3106 0.494 27.1514 0.7215 27.0696L3.28581 26.1642C3.41308 26.1192 3.54796 26.0998 3.68275 26.107C3.81754 26.1141 3.94959 26.1478 4.07137 26.206C4.19315 26.2642 4.30227 26.3459 4.3925 26.4463C4.48273 26.5466 4.55231 26.6638 4.59725 26.7911C4.64219 26.9184 4.66163 27.0533 4.65445 27.188C4.64727 27.3228 4.6136 27.4549 4.55539 27.5767C4.49717 27.6984 4.41554 27.8076 4.31515 27.8978C4.21476 27.988 4.09758 28.0576 3.97031 28.1025L1.406 29.008C1.29606 29.0468 1.18033 29.0666 1.06375 29.0666ZM31.3421 6.69496C31.1386 6.69512 30.9397 6.63489 30.7705 6.5219C30.6013 6.40892 30.4695 6.24825 30.3916 6.06027C30.3138 5.87228 30.2936 5.66543 30.3334 5.46591C30.3732 5.2664 30.4714 5.0832 30.6154 4.93951L34.2661 1.2909C34.459 1.09819 34.7205 0.989973 34.9931 0.99007C35.2658 0.990166 35.5272 1.09856 35.7199 1.29142C35.9126 1.48427 36.0208 1.74578 36.0207 2.01842C36.0206 2.29106 35.9122 2.55249 35.7194 2.74521L32.0687 6.39382C31.9735 6.48958 31.8603 6.56551 31.7356 6.6172C31.6108 6.6689 31.4771 6.69532 31.3421 6.69496ZM27.0624 4.95082C26.8982 4.95088 26.7363 4.91158 26.5904 4.83621C26.4445 4.76084 26.3187 4.65159 26.2237 4.51762C26.1287 4.38365 26.0672 4.22887 26.0443 4.06623C26.0214 3.90359 26.0378 3.73783 26.0922 3.58285L27.0891 0.73282C27.1791 0.475501 27.3676 0.264454 27.6131 0.146109C27.8587 0.0277627 28.1412 0.0118115 28.3985 0.101764C28.6558 0.191717 28.8669 0.380205 28.9852 0.625763C29.1036 0.871321 29.1195 1.15383 29.0296 1.41115L28.0326 4.26118C27.9625 4.46259 27.8314 4.63719 27.6575 4.76076C27.4837 4.88433 27.2757 4.95075 27.0624 4.95082ZM33.3761 10.8852C33.1343 10.8839 32.9008 10.7974 32.7164 10.6411C32.532 10.4848 32.4086 10.2685 32.3677 10.0302C32.3269 9.79194 32.3713 9.54689 32.4931 9.33807C32.6149 9.12925 32.8063 8.96999 33.0338 8.88824L35.5971 7.98276C35.8541 7.89199 36.1367 7.90705 36.3826 8.02463C36.6286 8.1422 36.8178 8.35266 36.9085 8.60971C36.9993 8.86676 36.9842 9.14933 36.8667 9.39528C36.7491 9.64122 36.5386 9.83038 36.2816 9.92115L33.7183 10.8266C33.6084 10.8654 33.4926 10.8852 33.3761 10.8852Z" fill="#FA743E"/>
<path d="M36.3731 24.4837C35.6937 23.4231 36.1428 21.9359 36.0216 20.2739C35.9291 17.5668 34.8571 14.91 32.6761 12.7403L25.2474 5.35164C25.2474 5.35164 23.7838 3.89528 22.3254 5.35986C20.869 6.82342 22.3336 8.28081 22.3336 8.28081L25.4724 11.4042L28.1919 14.1093C28.1919 14.1093 27.4622 14.8411 24.4519 11.8462C21.4394 8.8502 14.283 1.7277 14.283 1.7277C14.283 1.7277 12.8184 0.271336 11.3611 1.73592C9.90367 3.19948 11.3683 4.65584 11.3683 4.65584L20.9841 14.2244C20.9636 14.2039 20.2092 14.91 20.1958 14.8966L9.90778 4.65995C9.90778 4.65995 8.4432 3.20256 6.98581 4.66714C5.52945 6.13173 6.993 7.58809 6.993 7.58809L17.2821 17.8268C17.2944 17.8391 16.5832 18.5884 16.6038 18.6089L7.72889 9.77725C7.72889 9.77725 6.26431 8.32089 4.80692 9.78548C3.34953 11.2501 4.81411 12.7074 4.81411 12.7074L14.2501 22.0962C14.3365 22.1815 13.7054 23.0119 13.8133 23.1199L7.01356 16.354C7.01356 16.354 5.54897 14.8976 4.09159 16.3622C2.6342 17.8268 4.09878 19.2842 4.09878 19.2842L15.1885 30.3143C17.0406 32.1571 18.9728 33.1222 21.3284 33.5323C21.8084 33.6155 22.4251 33.6361 22.6759 33.6762C23.4703 33.8036 24.161 34.1109 25.0809 34.7183C26.2628 35.4984 28.0635 35.8674 29.1416 34.7903L32.818 31.1149L36.2117 27.7212C37.2898 26.6421 37.1367 25.6759 36.3731 24.4837Z" fill="#AF7E57"/>
</g>
<defs>
<clipPath id="clip0_2_49">
<rect width="37" height="37" fill="white"/>
</clipPath>
</defs>
</svg>
