<svg width="69" height="12" viewBox="0 0 69 12" fill="none" xmlns="http://www.w3.org/2000/svg">
<path d="M7.68328 7.80327L0.683281 10.8857V8.87216L5.47589 6.94815L5.41126 7.05256V6.80398L5.47589 6.90838L0.683281 4.98438V2.97088L7.68328 6.05327V7.80327ZM13.6381 3.36364V4.95455H9.03933V3.36364H13.6381ZM10.0834 1.53409H12.2013V8.65341C12.2013 8.84896 12.2311 9.00142 12.2908 9.1108C12.3504 9.21686 12.4333 9.29143 12.5393 9.33452C12.6487 9.3776 12.7747 9.39915 12.9172 9.39915C13.0166 9.39915 13.116 9.39086 13.2155 9.37429C13.3149 9.3544 13.3911 9.33949 13.4442 9.32955L13.7773 10.9055C13.6712 10.9387 13.5221 10.9768 13.3298 11.0199C13.1376 11.0663 12.9039 11.0945 12.6288 11.1044C12.1184 11.1243 11.671 11.0563 11.2865 10.9006C10.9053 10.7448 10.6087 10.5028 10.3966 10.1747C10.1845 9.84659 10.0801 9.43229 10.0834 8.93182V1.53409ZM17.0896 6.58523V11H14.9717V0.818182H17.03V4.71094H17.1195C17.2918 4.26018 17.5702 3.9072 17.9547 3.65199C18.3392 3.39347 18.8214 3.2642 19.4014 3.2642C19.9317 3.2642 20.3941 3.38021 20.7885 3.61222C21.1862 3.84091 21.4945 4.17069 21.7132 4.60156C21.9353 5.02912 22.0446 5.54119 22.0413 6.13778V11H19.9234V6.51562C19.9268 6.04498 19.8074 5.67874 19.5655 5.4169C19.3268 5.15507 18.9921 5.02415 18.5612 5.02415C18.2729 5.02415 18.0177 5.08546 17.7956 5.2081C17.5768 5.33073 17.4045 5.50971 17.2786 5.74503C17.1559 5.97704 17.0929 6.2571 17.0896 6.58523ZM26.9782 11.1491C26.1927 11.1491 25.5165 10.9901 24.9498 10.6719C24.3863 10.3504 23.9521 9.89631 23.6472 9.30966C23.3423 8.7197 23.1898 8.02202 23.1898 7.21662C23.1898 6.43111 23.3423 5.74171 23.6472 5.14844C23.9521 4.55516 24.3813 4.0928 24.9349 3.76136C25.4917 3.42992 26.1446 3.2642 26.8937 3.2642C27.3974 3.2642 27.8664 3.34541 28.3006 3.50781C28.7381 3.6669 29.1193 3.9072 29.4441 4.22869C29.7722 4.55019 30.0274 4.95455 30.2097 5.44176C30.392 5.92566 30.4831 6.49242 30.4831 7.14205V7.72372H24.035V6.41122H28.4895C28.4895 6.1063 28.4233 5.83617 28.2907 5.60085C28.1581 5.36553 27.9742 5.18158 27.7388 5.04901C27.5068 4.91312 27.2367 4.84517 26.9285 4.84517C26.607 4.84517 26.3219 4.91974 26.0733 5.06889C25.8281 5.21473 25.6358 5.41193 25.4966 5.66051C25.3574 5.90578 25.2862 6.17921 25.2829 6.48082V7.72869C25.2829 8.10653 25.3525 8.433 25.4917 8.7081C25.6342 8.98319 25.8347 9.19531 26.0932 9.34446C26.3518 9.49361 26.6583 9.56818 27.013 9.56818C27.2483 9.56818 27.4637 9.53504 27.6593 9.46875C27.8548 9.40246 28.0222 9.30303 28.1614 9.17045C28.3006 9.03788 28.4067 8.87547 28.4796 8.68324L30.4384 8.8125C30.339 9.28314 30.1351 9.69413 29.8269 10.0455C29.522 10.3935 29.1276 10.6652 28.6437 10.8608C28.1631 11.053 27.6079 11.1491 26.9782 11.1491ZM31.6552 11V3.36364H33.7731V11H31.6552ZM32.7192 2.37926C32.4043 2.37926 32.1342 2.27486 31.9088 2.06605C31.6867 1.85393 31.5757 1.60038 31.5757 1.3054C31.5757 1.01373 31.6867 0.763494 31.9088 0.554688C32.1342 0.342566 32.4043 0.236505 32.7192 0.236505C33.034 0.236505 33.3025 0.342566 33.5246 0.554688C33.7499 0.763494 33.8626 1.01373 33.8626 1.3054C33.8626 1.60038 33.7499 1.85393 33.5246 2.06605C33.3025 2.27486 33.034 2.37926 32.7192 2.37926ZM39.3215 3.36364V4.95455H34.7228V3.36364H39.3215ZM35.7668 1.53409H37.8847V8.65341C37.8847 8.84896 37.9145 9.00142 37.9742 9.1108C38.0338 9.21686 38.1167 9.29143 38.2228 9.33452C38.3321 9.3776 38.4581 9.39915 38.6006 9.39915C38.7 9.39915 38.7995 9.39086 38.8989 9.37429C38.9983 9.3544 39.0746 9.33949 39.1276 9.32955L39.4607 10.9055C39.3546 10.9387 39.2055 10.9768 39.0133 11.0199C38.821 11.0663 38.5874 11.0945 38.3123 11.1044C37.8018 11.1243 37.3544 11.0563 36.9699 10.9006C36.5888 10.7448 36.2921 10.5028 36.08 10.1747C35.8679 9.84659 35.7635 9.43229 35.7668 8.93182V1.53409ZM43.8594 11.1491C43.0772 11.1491 42.4043 10.9834 41.8409 10.652C41.2808 10.3172 40.8499 9.85322 40.5483 9.25994C40.25 8.66667 40.1008 7.9839 40.1008 7.21165C40.1008 6.42945 40.2516 5.74337 40.5533 5.15341C40.8582 4.56013 41.2907 4.09777 41.8508 3.76633C42.411 3.43158 43.0772 3.2642 43.8494 3.2642C44.5156 3.2642 45.0989 3.38518 45.5994 3.62713C46.0999 3.86908 46.496 4.20881 46.7876 4.64631C47.0793 5.08381 47.24 5.59754 47.2699 6.1875H45.2713C45.2149 5.80634 45.0658 5.49976 44.8239 5.26776C44.5852 5.03243 44.272 4.91477 43.8842 4.91477C43.5561 4.91477 43.2694 5.00426 43.0241 5.18324C42.7822 5.3589 42.5933 5.61577 42.4574 5.95384C42.3215 6.2919 42.2535 6.70123 42.2535 7.18182C42.2535 7.66903 42.3198 8.08333 42.4524 8.42472C42.5883 8.7661 42.7789 9.02628 43.0241 9.20526C43.2694 9.38423 43.5561 9.47372 43.8842 9.47372C44.1262 9.47372 44.3433 9.42401 44.5355 9.32457C44.731 9.22514 44.8918 9.08097 45.0177 8.89205C45.147 8.69981 45.2315 8.46946 45.2713 8.20099H47.2699C47.2367 8.78433 47.0776 9.29806 46.7926 9.74219C46.5109 10.183 46.1214 10.5277 45.6243 10.7763C45.1271 11.0249 44.5388 11.1491 43.8594 11.1491ZM50.5338 0.818182V11H48.4159V0.818182H50.5338ZM56.9173 7.74858V3.36364H59.0352V11H57.0019V9.61293H56.9223C56.75 10.0604 56.4633 10.42 56.0622 10.6918C55.6645 10.9635 55.1789 11.0994 54.6056 11.0994C54.0951 11.0994 53.646 10.9834 53.2583 10.7514C52.8705 10.5194 52.5672 10.1896 52.3485 9.76207C52.133 9.33452 52.0236 8.82244 52.0203 8.22585V3.36364H54.1382V7.84801C54.1415 8.29877 54.2625 8.65507 54.5012 8.9169C54.7398 9.17874 55.0596 9.30966 55.4607 9.30966C55.7159 9.30966 55.9545 9.25166 56.1766 9.13565C56.3986 9.01634 56.5776 8.84067 56.7135 8.60866C56.8527 8.37666 56.9207 8.08996 56.9173 7.74858ZM60.5591 11V0.818182H62.677V4.64631H62.7416C62.8344 4.44081 62.9686 4.23201 63.1443 4.01989C63.3233 3.80445 63.5553 3.62547 63.8403 3.48295C64.1287 3.33712 64.4866 3.2642 64.9142 3.2642C65.471 3.2642 65.9847 3.41004 66.4554 3.7017C66.926 3.99006 67.3022 4.4259 67.5839 5.00923C67.8657 5.58925 68.0065 6.31676 68.0065 7.19176C68.0065 8.04356 67.869 8.76278 67.5939 9.34943C67.3221 9.93277 66.9509 10.3752 66.4802 10.6768C66.0129 10.9751 65.4892 11.1243 64.9092 11.1243C64.4982 11.1243 64.1486 11.0563 63.8602 10.9205C63.5752 10.7846 63.3415 10.6139 63.1592 10.4084C62.9769 10.1996 62.8377 9.98911 62.7416 9.77699H62.6472V11H60.5591ZM62.6322 7.18182C62.6322 7.63589 62.6952 8.03196 62.8212 8.37003C62.9471 8.7081 63.1294 8.97159 63.368 9.16051C63.6067 9.34612 63.8967 9.43892 64.2381 9.43892C64.5828 9.43892 64.8744 9.34446 65.1131 9.15554C65.3517 8.9633 65.5323 8.69815 65.655 8.36009C65.7809 8.0187 65.8439 7.62595 65.8439 7.18182C65.8439 6.741 65.7826 6.35322 65.6599 6.01847C65.5373 5.68371 65.3567 5.42187 65.118 5.23295C64.8794 5.04403 64.5861 4.94957 64.2381 4.94957C63.8934 4.94957 63.6017 5.04072 63.3631 5.22301C63.1277 5.4053 62.9471 5.66383 62.8212 5.99858C62.6952 6.33333 62.6322 6.72775 62.6322 7.18182Z" fill="black"/>
</svg>
