<svg width="37" height="37" viewBox="0 0 37 37" fill="none" xmlns="http://www.w3.org/2000/svg">
<g clip-path="url(#clip0_2_52)">
<path d="M37 18.5C37 28.7171 28.7171 37 18.5 37C8.28389 37 0 28.7171 0 18.5C0 8.28389 8.28389 0 18.5 0C28.7171 0 37 8.28389 37 18.5Z" fill="#FFCC4D"/>
<path d="M6.16666 13.3611C6.03169 13.3614 5.89799 13.3351 5.77319 13.2837C5.64839 13.2323 5.53494 13.1568 5.43931 13.0615C5.24618 12.8692 5.13737 12.608 5.13683 12.3354C5.13628 12.0628 5.24404 11.8012 5.4364 11.608C5.62876 11.4149 5.88997 11.3061 6.16255 11.3056C6.32288 11.3035 9.83069 11.2172 12.5399 7.60556C12.7035 7.3875 12.9469 7.24333 13.2168 7.20478C13.4866 7.16623 13.7607 7.23646 13.9788 7.40001C14.1969 7.56356 14.341 7.80703 14.3796 8.07688C14.4181 8.34672 14.3479 8.62083 14.1844 8.8389C10.8307 13.3097 6.35577 13.3611 6.16666 13.3611ZM30.8333 13.3611C30.6442 13.3611 26.1703 13.3097 22.8167 8.8389C22.7311 8.73136 22.668 8.60777 22.631 8.47541C22.5941 8.34306 22.584 8.20464 22.6015 8.06834C22.619 7.93204 22.6636 7.80062 22.7327 7.68187C22.8019 7.56311 22.8941 7.45943 23.004 7.37694C23.1139 7.29446 23.2393 7.23486 23.3726 7.20166C23.5059 7.16845 23.6446 7.16233 23.7803 7.18364C23.9161 7.20496 24.0462 7.25328 24.1629 7.32575C24.2797 7.39822 24.3807 7.49337 24.4601 7.60556C27.1744 11.2244 30.6894 11.3045 30.8385 11.3056C31.4037 11.3117 31.8601 11.7742 31.857 12.3385C31.8567 12.6098 31.7488 12.8699 31.5568 13.0617C31.3649 13.2534 31.1046 13.3611 30.8333 13.3611ZM6.16769 22.6111C5.95215 22.611 5.74209 22.5432 5.56722 22.4172C5.39234 22.2912 5.26151 22.1134 5.19321 21.909C5.12491 21.7046 5.12262 21.4838 5.18664 21.278C5.25067 21.0722 5.37778 20.8918 5.54999 20.7621C5.69697 20.6522 8.58297 18.5185 12.5964 17.7477C10.0527 16.4722 7.22938 16.4445 7.19341 16.4445C6.92878 16.4325 6.67897 16.3189 6.49599 16.1274C6.31301 15.9358 6.21096 15.6811 6.21109 15.4162C6.21122 15.1513 6.31353 14.8966 6.4967 14.7053C6.67987 14.5139 6.9298 14.4006 7.19444 14.3889C7.42158 14.3889 12.7979 14.428 16.1433 17.7734C16.287 17.9171 16.3848 18.1002 16.4245 18.2996C16.4641 18.4989 16.4438 18.7055 16.366 18.8933C16.2882 19.0811 16.1565 19.2416 15.9875 19.3545C15.8186 19.4674 15.6199 19.5277 15.4167 19.5278C10.6755 19.5278 6.82136 22.3768 6.78333 22.4056C6.60584 22.539 6.38977 22.6112 6.16769 22.6111ZM30.8323 22.6101C30.6108 22.6104 30.3952 22.539 30.2177 22.4066C30.1786 22.3768 26.3008 19.5278 21.5833 19.5278C21.3799 19.5282 21.1809 19.4682 21.0116 19.3554C20.8423 19.2425 20.7103 19.0819 20.6325 18.8939C20.5546 18.7059 20.5343 18.4991 20.5743 18.2996C20.6142 18.1001 20.7125 17.9169 20.8567 17.7734C24.2031 14.428 29.5784 14.3889 29.8056 14.3889C29.9405 14.3888 30.0742 14.4152 30.1989 14.4667C30.3237 14.5183 30.4371 14.5939 30.5326 14.6892C30.6281 14.7845 30.704 14.8978 30.7557 15.0224C30.8075 15.1471 30.8342 15.2807 30.8344 15.4156C30.8345 15.5506 30.808 15.6843 30.7565 15.809C30.705 15.9338 30.6294 16.0472 30.5341 16.1427C30.4387 16.2382 30.3255 16.314 30.2008 16.3658C30.0762 16.4176 29.9426 16.4443 29.8076 16.4445C29.7706 16.4445 26.9473 16.4722 24.4036 17.7477C28.417 18.5185 31.303 20.6511 31.449 20.7621C31.6207 20.8918 31.7474 21.0721 31.8112 21.2777C31.8749 21.4832 31.8726 21.7035 31.8045 21.9077C31.7364 22.1118 31.6059 22.2894 31.4315 22.4154C31.2571 22.5414 31.0475 22.6095 30.8323 22.6101ZM18.5 30.8333C18.3459 30.8334 18.1937 30.7988 18.0547 30.7321C17.9158 30.6654 17.7936 30.5682 17.6973 30.4479L14.4146 26.345L12.1278 29.3945C12.0396 29.5125 11.9271 29.6102 11.7978 29.6809C11.6685 29.7515 11.5255 29.7935 11.3785 29.8039C11.2315 29.8144 11.084 29.793 10.9461 29.7413C10.8081 29.6897 10.6829 29.6088 10.5789 29.5044L9.55113 28.4766C9.45571 28.3812 9.38001 28.2679 9.32837 28.1433C9.27673 28.0186 9.25015 27.885 9.25015 27.75C9.25015 27.6151 9.27673 27.4814 9.32837 27.3568C9.38001 27.2321 9.45571 27.1188 9.55113 27.0234C9.74385 26.8307 10.0052 26.7224 10.2778 26.7224C10.4127 26.7224 10.5463 26.749 10.671 26.8006C10.7957 26.8523 10.909 26.9279 11.0044 27.0234L11.1945 27.2135L13.5667 24.05C13.6603 23.924 13.7816 23.8212 13.9213 23.7495C14.061 23.6779 14.2153 23.6393 14.3723 23.6368C14.5292 23.6343 14.6847 23.668 14.8266 23.7352C14.9685 23.8024 15.093 23.9013 15.1905 24.0243L18.5 28.1601L21.8084 24.0243C22.0068 23.7766 22.3059 23.6389 22.6276 23.6389C22.9462 23.644 23.2432 23.7951 23.4333 24.05L25.8065 27.2125L25.9966 27.0223C26.092 26.9269 26.2053 26.8512 26.33 26.7996C26.4547 26.7479 26.5883 26.7214 26.7232 26.7214C26.8582 26.7214 26.9918 26.7479 27.1165 26.7996C27.2412 26.8512 27.3545 26.9269 27.4499 27.0223C27.5453 27.1178 27.621 27.231 27.6726 27.3557C27.7243 27.4804 27.7509 27.614 27.7509 27.749C27.7509 27.8839 27.7243 28.0176 27.6726 28.1422C27.621 28.2669 27.5453 28.3802 27.4499 28.4756L26.4221 29.5034C26.319 29.6089 26.1938 29.6903 26.0556 29.7418C25.9174 29.7933 25.7695 29.8137 25.6225 29.8015C25.4757 29.7911 25.3328 29.7492 25.2035 29.6789C25.0743 29.6085 24.9616 29.5111 24.8732 29.3934L22.5854 26.344L19.3037 30.4469C19.2073 30.5674 19.085 30.6647 18.9459 30.7316C18.8067 30.7985 18.6544 30.8333 18.5 30.8333Z" fill="#664500"/>
</g>
<defs>
<clipPath id="clip0_2_52">
<rect width="37" height="37" fill="white"/>
</clipPath>
</defs>
</svg>
