<svg width="21" height="17" viewBox="0 0 21 17" fill="none" xmlns="http://www.w3.org/2000/svg">
<path d="M2.17096 16.8828L19.621 9.40281C19.8013 9.32597 19.9552 9.19779 20.0633 9.03421C20.1714 8.87064 20.229 8.67889 20.229 8.48281C20.229 8.28674 20.1714 8.09499 20.0633 7.93141C19.9552 7.76784 19.8013 7.63966 19.621 7.56281L2.17096 0.0828133C2.01986 0.0169078 1.85473 -0.0103438 1.69047 0.00351645C1.5262 0.0173767 1.36798 0.0719128 1.23006 0.162205C1.09214 0.252498 0.978866 0.375705 0.900463 0.520713C0.822059 0.665721 0.780989 0.827967 0.780958 0.992813L0.770958 5.60281C0.770958 6.10281 1.14096 6.53281 1.64096 6.59281L15.771 8.48281L1.64096 10.3628C1.14096 10.4328 0.770958 10.8628 0.770958 11.3628L0.780958 15.9728C0.780958 16.6828 1.51096 17.1728 2.17096 16.8828Z" fill="#3864D6"/>
</svg>
