<svg width="73" height="73" viewBox="0 0 73 73" fill="none" xmlns="http://www.w3.org/2000/svg">
<path d="M26.1746 62.3542C25.6149 66.8335 21.5289 68.4375 17.0496 68.4375C12.5702 68.4375 9.39268 64.8057 9.95235 60.3264L11.9801 42.0764C12.5398 37.597 16.6258 33.9653 21.1051 33.9653C25.5845 33.9653 34.2208 33.9653 28.2024 42.0764C22.1839 50.1875 26.1746 62.3542 26.1746 62.3542Z" fill="#BE1931"/>
<path d="M72.6452 29.9097C72.6452 43.9054 69.5143 55.2569 65.6493 55.2569C61.7864 55.2569 24.1813 43.9054 24.1813 29.9097C24.1813 15.912 61.7864 4.5625 65.6493 4.5625C69.5143 4.5625 72.6452 15.912 72.6452 29.9097Z" fill="#CCD6DD"/>
<path d="M65.6493 55.2569C69.513 55.2569 72.6451 43.9086 72.6451 29.9097C72.6451 15.9108 69.513 4.5625 65.6493 4.5625C61.7856 4.5625 58.6534 15.9108 58.6534 29.9097C58.6534 43.9086 61.7856 55.2569 65.6493 55.2569Z" fill="#66757F"/>
<path d="M36.3479 44.1042L7.95902 42.0764C-2.17986 42.0764 -2.17986 17.743 7.95902 17.743L36.3479 15.7153C30.2646 21.7986 30.2646 38.0208 36.3479 44.1042Z" fill="#DD2E44"/>
<path d="M63.5201 38.7265C65.2 38.7265 66.5618 34.7791 66.5618 29.9097C66.5618 25.0404 65.2 21.093 63.5201 21.093C61.8403 21.093 60.4785 25.0404 60.4785 29.9097C60.4785 34.7791 61.8403 38.7265 63.5201 38.7265Z" fill="#99AAB5"/>
</svg>
